<svg version="1.1" xmlns="http://www.w3.org/2000/svg" style="display: block;" viewBox="0 0 2048 1924" width="1056" height="992" preserveAspectRatio="none">
<path transform="translate(0,0)" fill="rgb(255,255,255)" d="M 0 0 L 2048 0 L 2048 1924 L 0 1924 L 0 0 z"/>
<path transform="translate(0,0)" fill="rgb(55,19,35)" d="M 983.428 174.753 C 1433.46 164.638 1806.45 521.34 1816.42 971.377 C 1826.39 1421.41 1469.57 1794.28 1019.53 1804.11 C 569.692 1813.93 197.026 1457.31 187.059 1007.48 C 177.093 557.643 533.598 184.863 983.428 174.753 z"/>
<path transform="translate(0,0)" fill="rgb(255,255,255)" d="M 978.657 226.219 C 1400.22 213.495 1752.27 544.959 1764.94 966.527 C 1777.6 1388.09 1446.09 1740.1 1024.52 1752.7 C 603.032 1765.31 251.114 1433.88 238.45 1012.39 C 225.787 590.903 557.173 238.94 978.657 226.219 z"/>
<path transform="translate(0,0)" fill="rgb(55,19,35)" d="M 976.295 540.758 C 1221.56 526.541 1431.82 714.016 1445.71 959.295 C 1459.61 1204.57 1271.85 1414.59 1026.56 1428.16 C 781.718 1441.7 572.177 1254.38 558.31 1009.56 C 544.444 764.736 731.493 554.947 976.295 540.758 z"/>
<path transform="translate(0,0)" fill="rgb(255,255,255)" d="M 1001.33 594.473 C 1047.59 594.891 1084.66 599.672 1128.93 614.149 C 1227.9 646.037 1310.01 716.175 1356.96 808.944 C 1397.65 889.514 1410.66 998.604 1382.25 1084.69 C 1338.99 1111.84 1299.43 1121.49 1248.37 1122.67 C 1197.07 1123.85 1137.21 1112.09 1099.22 1075.49 C 1077.08 1053.89 1064.45 1024.36 1064.14 993.422 C 1063.23 930.57 1116.03 897.175 1173.87 908.882 C 1185.53 911.241 1197.19 915.36 1209.04 915.549 C 1220.23 916.461 1234.86 905.879 1232.78 893.545 C 1228.81 870.035 1199.9 841.852 1183.34 827.393 C 1174.44 819.54 1164.45 812.666 1154.2 806.699 C 1114.82 783.77 1067.48 776.03 1022.44 779.886 C 808.887 798.17 790.69 1035.94 655.632 1070.13 C 648.191 1072.02 624.009 1076.55 617.942 1070.86 C 611.011 1064.37 606.569 1002.5 606.206 989.742 C 603.344 889.079 644.977 790.524 713.86 718.05 C 789.74 638.215 892.077 597.092 1001.33 594.473 z"/>
<path transform="translate(0,0)" fill="rgb(255,255,255)" d="M 1027.11 829.392 C 1064.97 824.367 1108.47 836.708 1140.16 857.788 C 1126.83 859.131 1115.55 860.958 1102.68 864.877 C 1024.43 888.711 997.299 972.781 1021.62 1046.05 C 1038.47 1099.32 1083.31 1136.14 1134.93 1154.81 C 1205.01 1180.15 1285.4 1177.16 1355.58 1153.95 C 1352.72 1159.7 1349.73 1165.39 1346.61 1171 C 1291.03 1269.85 1203.8 1334.94 1095.36 1365.22 C 1012.16 1386.11 924.38 1378.84 845.751 1344.55 C 748.267 1302.25 671.914 1222.49 633.908 1123.25 C 707.361 1120.86 764.15 1071.75 805.209 1014.69 C 865.246 931.262 912.81 840.919 1027.11 829.392 z"/>
<path transform="translate(0,0)" fill="rgb(55,19,35)" d="M 1148.46 1522.43 L 1149.8 1522.49 C 1198.98 1525.17 1183.15 1600.07 1198.42 1632.09 C 1199.59 1634.55 1203.21 1638.47 1205.15 1640.61 C 1196.56 1649.68 1189.49 1653.29 1177.72 1654.41 C 1143.28 1653.08 1161.44 1579.38 1144.12 1561.45 C 1134.21 1551.18 1120.09 1565.1 1114.09 1572.77 C 1118.56 1596.87 1123.56 1636.23 1126.42 1660.78 C 1112.99 1665.49 1103.39 1666.73 1089.21 1666.57 C 1086.04 1651.05 1083.39 1624.44 1081.24 1608.07 C 1080.54 1602.35 1079.79 1596.63 1079 1590.93 C 1074.61 1561.28 1057.36 1563.5 1042.79 1584.81 C 1047.09 1611.42 1049.97 1643.64 1053.01 1670.83 C 1038.95 1675.68 1030.2 1676.7 1015.32 1676.46 C 1012.32 1648.56 1009.17 1620.67 1005.86 1592.8 C 1004.8 1584.37 999.716 1553.91 1000.38 1547.03 C 1005.2 1541.78 1019.31 1540.85 1026.05 1542.77 C 1032.23 1544.53 1035.61 1551.21 1038.3 1556.61 C 1039.68 1554.95 1041.12 1553.33 1042.61 1551.77 C 1061.82 1531.45 1085.44 1526.52 1106.25 1547.9 C 1107.72 1546.08 1109.21 1544.27 1110.72 1542.47 C 1122.07 1528.96 1130.9 1523.96 1148.46 1522.43 z"/>
<path transform="translate(0,0)" fill="rgb(55,19,35)" d="M 956.098 282.323 C 975.267 284.194 972.118 303.198 973.597 319.168 L 981.603 398.757 C 982.749 409.885 983.846 421.071 985.142 432.179 C 986.7 445.539 988.225 452.489 997.689 462.321 C 985.368 481.356 969.902 479.648 955.117 464.495 C 941.945 482.107 929.931 487.163 908.043 484.422 L 906.727 483.998 C 841.779 462.595 853.082 318.496 938.696 351.171 C 936.208 331.202 934.641 309.04 932.704 288.786 C 941.657 284.585 946.375 283.528 956.098 282.323 z"/>
<path transform="translate(0,0)" fill="rgb(255,255,255)" d="M 919.11 375.18 C 930.249 374.348 935.396 376.651 943.08 384.604 C 945.103 401.238 946.467 419.243 948.05 436.016 C 943.223 444.833 940.377 447.297 931.811 451.752 C 912.073 452.797 906.656 436.099 904.209 419.762 C 901.645 402.64 902.078 384.096 919.11 375.18 z"/>
<path transform="translate(0,0)" fill="rgb(55,19,35)" d="M 411.776 639.131 C 425.723 638.159 432.94 644.922 436.335 659.062 C 438.268 671.796 416.967 673.274 408.592 677.569 C 384.531 689.907 386.026 735.419 418.368 718.799 C 438.324 708.543 452.72 690.654 475.955 684.005 C 489.089 680.105 503.243 681.681 515.197 688.376 C 570.506 719.632 537.806 799.669 486.24 812.931 C 472.822 813.574 465.595 808.24 460.72 794.627 C 458.004 785.562 469.89 779.69 476.552 777.976 C 492.715 773.82 512.625 757.337 507.763 738.53 C 506.519 733.644 503.222 729.534 498.722 727.26 C 469.872 712.927 431.959 784.617 386.68 759.383 C 330.261 727.941 363.342 653.742 411.776 639.131 z"/>
<path transform="translate(0,0)" fill="rgb(55,19,35)" d="M 1389.92 478.327 C 1444.78 474.084 1477.57 538.921 1443.53 581.559 C 1427.79 601.279 1415.3 610.554 1390.24 614.758 C 1375.25 615.866 1358.4 610.967 1346.52 601.76 C 1295.29 562.067 1332.75 485.84 1389.92 478.327 z"/>
<path transform="translate(0,0)" fill="rgb(255,255,255)" d="M 1401.5 511.213 C 1444.52 515.672 1413.66 572.518 1379.85 581.46 C 1335.08 576.879 1368.12 518.525 1401.5 511.213 z"/>
<path transform="translate(0,0)" fill="rgb(55,19,35)" d="M 1137.51 307.227 C 1164.94 305.258 1203.02 316.644 1215.86 344.246 C 1219.98 353.098 1209.44 370.849 1199.82 371.336 C 1189.5 371.859 1182.51 351.395 1173.58 346.908 C 1162.72 338.156 1140.36 334.227 1131.81 348.144 C 1120.56 366.449 1152.13 382.53 1163.89 392.409 C 1182.26 407.836 1194.86 423.165 1189.66 448.927 C 1184.31 475.363 1166.78 487.975 1141.77 492.693 C 1114.68 495.431 1070.12 482.345 1058.99 452.101 C 1057.75 448.723 1059.51 442.03 1061.9 439.197 C 1084.13 412.749 1088.09 440.604 1104.83 452.622 C 1111.71 460.082 1140.69 463.214 1145.01 451.252 C 1157.25 417.361 1090.84 405.858 1088.27 369.156 C 1085.73 332.757 1105.69 312.737 1137.51 307.227 z"/>
<path transform="translate(0,0)" fill="rgb(55,19,35)" d="M 1274.09 335.913 C 1280.65 335.725 1287.16 337.07 1293.11 339.841 C 1317.59 351.466 1285.39 396.821 1276.8 414.181 C 1293.3 410.954 1310.79 410.054 1324.22 422.44 C 1362.26 457.525 1294.37 512.827 1297.52 548.712 C 1290.7 556.915 1264.19 546.702 1261.84 536.135 C 1260.24 528.973 1262.38 521.615 1265.44 514.969 C 1270.77 503.415 1277.03 491.821 1282.94 480.488 C 1287.93 471.16 1295.13 460.453 1294.58 449.772 C 1293.96 437.918 1267.59 435.008 1262.8 442.128 C 1246.73 466.027 1235.94 494.263 1220.71 518.761 C 1206.44 515.725 1197.95 511.32 1187.73 501.195 C 1209.14 458.555 1232.57 416.659 1254.28 374.149 C 1260.81 361.372 1267.28 348.543 1274.09 335.913 z"/>
<path transform="translate(0,0)" fill="rgb(55,19,35)" d="M 591.766 1315.41 C 637.508 1315.42 680.823 1359.05 664.006 1406.23 C 653.719 1435.09 632.768 1430.01 617.15 1407.4 C 624.413 1399.82 630.548 1392.72 631.277 1381.46 C 631.784 1373.38 629.024 1365.43 623.617 1359.4 C 593.444 1326.24 528.109 1386.73 527.007 1424.61 C 532.732 1452.83 553.835 1458.79 577.357 1463.69 C 589.542 1466.23 581.814 1489.18 578.688 1497.4 C 556.53 1497.18 533.777 1487.43 516.647 1473.7 C 446.595 1417.54 520.654 1320 591.766 1315.41 z"/>
<path transform="translate(0,0)" fill="rgb(55,19,35)" d="M 533.646 551.306 C 569.798 548.6 586.205 588.404 616.213 600.553 C 620.57 602.317 624.866 601.086 629.301 600.051 C 640.249 613.092 641.975 623.758 624.538 633.424 C 618.19 636.943 611.767 636.937 604.723 636.828 C 604.851 639.823 604.963 642.899 604.809 645.896 C 604.183 659.444 598.182 672.183 588.134 681.293 C 566.037 701.368 542.875 693.977 524.807 673.9 C 505.083 642.281 527.203 618.832 549.456 597.523 C 514.443 564.686 511.065 623.786 499.962 630.859 C 491.663 632.59 481.076 626.923 473.955 622.767 C 479.118 593.963 503.406 557.787 533.646 551.306 z"/>
<path transform="translate(0,0)" fill="rgb(255,255,255)" d="M 565.575 612.65 C 570.488 614.202 578.326 622.243 580.325 627.211 C 582.595 632.962 582.463 639.383 579.958 645.035 C 576.834 652.165 573.35 654.248 566.584 657.033 C 557.798 655.461 549.029 650.189 549.292 640.184 C 549.597 628.608 558.173 620.487 565.575 612.65 z"/>
<path transform="translate(0,0)" fill="rgb(55,19,35)" d="M 1472.19 1298.57 C 1477.61 1300.77 1499.36 1339.54 1503.43 1347.17 C 1531.9 1400.53 1599.97 1472.14 1515.64 1513.29 C 1508.48 1506.07 1504.25 1498.49 1500.34 1489.25 C 1527.69 1473.18 1531.13 1464.83 1517.92 1435.94 C 1505.03 1451.46 1500.64 1448.51 1483.48 1440.01 C 1471.58 1433.88 1399.42 1398.06 1393.31 1392.26 C 1391.18 1380.87 1405.16 1368.76 1414.01 1363.72 C 1422.92 1366.96 1438.36 1375.65 1447.07 1380.36 C 1466.84 1390.9 1486.34 1401.94 1505.53 1413.48 C 1486.67 1384.41 1466.14 1352.83 1448.63 1323.04 C 1455.69 1311.22 1460.76 1306.05 1472.19 1298.57 z"/>
<path transform="translate(0,0)" fill="rgb(55,19,35)" d="M 897.314 1533.41 C 904.486 1532.87 911.686 1532.83 918.863 1533.3 C 989.626 1538.53 963.353 1598.11 959.536 1644.04 C 961.426 1648.83 963.367 1651.86 965.953 1656.26 C 963.301 1661.66 960.832 1668.43 955.51 1671.65 C 943.447 1678.95 930.946 1666 925.073 1656.13 C 924.19 1656.68 923.304 1657.22 922.415 1657.76 C 906.305 1667.5 894.952 1668.92 876.796 1664.45 C 874.783 1663.67 872.792 1662.84 870.824 1661.95 C 861.639 1657.77 854.576 1650 851.289 1640.47 C 838.769 1603.63 876.589 1576.57 909.365 1584.44 C 913.472 1585.42 926.065 1588.15 929.475 1587.04 C 931.277 1582.5 931.499 1575.13 929.722 1570.64 C 921.9 1550.89 883.451 1567.83 874.045 1563.79 C 868.473 1557.92 869.01 1546.19 868.955 1538.29 C 878.353 1535.07 887.481 1534.25 897.314 1533.41 z"/>
<path transform="translate(0,0)" fill="rgb(255,255,255)" d="M 900.05 1608.12 C 909.399 1607.57 917.303 1609.64 926.384 1611.61 C 923.358 1627.31 927.141 1631.15 911.405 1638.69 C 882.925 1645.47 877.214 1617.02 900.05 1608.12 z"/>
<path transform="translate(0,0)" fill="rgb(55,19,35)" d="M 1538.51 672.303 C 1578.04 667.914 1611.28 701.555 1604.77 740.441 C 1602.52 753.794 1594.97 765.671 1583.83 773.366 C 1576.82 778.279 1561.99 785.787 1553.47 783.191 C 1545.84 780.863 1521.91 730.744 1516.6 720.838 C 1509.25 726.761 1506.92 729.64 1502.48 737.744 C 1492.09 781.996 1552.39 769.928 1515.39 806.693 C 1476.1 792.78 1450.59 741.458 1478.47 705.67 C 1493.43 686.458 1514.7 675.687 1538.51 672.303 z"/>
<path transform="translate(0,0)" fill="rgb(255,255,255)" d="M 1552.98 705.215 C 1565.9 705.432 1577.01 713.905 1574.73 727.824 C 1573.27 736.761 1567.74 740.592 1560.87 745.345 C 1556.78 744.277 1541.49 715.258 1538.26 709.551 C 1544.32 707.163 1546.62 706.587 1552.98 705.215 z"/>
<path transform="translate(0,0)" fill="rgb(55,19,35)" d="M 1265.32 1476.17 C 1301.27 1472.47 1323.4 1497.15 1327.67 1530.62 C 1310.59 1541.09 1281.56 1553.74 1262.81 1562.49 C 1281.95 1596.85 1309.9 1572.59 1327.31 1552.9 C 1333.67 1556.21 1343.75 1562.62 1346.54 1569.38 C 1331.29 1599.64 1282.93 1626.44 1253.32 1604.86 C 1204.4 1569.22 1195.72 1492.87 1265.32 1476.17 z"/>
<path transform="translate(0,0)" fill="rgb(255,255,255)" d="M 1265.35 1504.13 C 1279.12 1503.43 1284.07 1511.17 1289.5 1522.28 L 1267.63 1532.7 L 1252.17 1540.25 C 1246.84 1522.48 1246.54 1512.1 1265.35 1504.13 z"/>
<path transform="translate(0,0)" fill="rgb(55,19,35)" d="M 772.247 1496.28 C 790.251 1495.67 806.399 1500.15 819.759 1512.8 C 829.683 1522.08 835.396 1534.99 835.58 1548.58 C 835.901 1564.62 830.318 1581.03 819.211 1592.78 C 796.317 1584.45 773.597 1575.66 751.065 1566.4 C 746.651 1592.37 752.67 1600.51 778.258 1606.75 C 782.545 1607.42 800.958 1607.15 801.51 1607.82 C 804.973 1612.05 810.861 1633.09 796.755 1634.55 C 735.591 1640.84 693.121 1598.73 721.739 1538.85 C 733.072 1515.14 745.136 1500.99 772.247 1496.28 z"/>
<path transform="translate(0,0)" fill="rgb(255,255,255)" d="M 776.976 1525.16 C 797.506 1522.55 810.441 1540.8 798.957 1556.41 C 795.6 1557.89 796.447 1557.29 791.74 1555.64 C 781.46 1551.63 771.215 1547.53 761.006 1543.34 C 765.183 1534.68 768.636 1530.04 776.976 1525.16 z"/>
<path transform="translate(0,0)" fill="rgb(55,19,35)" d="M 788.08 380.212 C 796.771 379.655 804.538 379.49 812.878 382.52 C 826.421 387.441 836.874 398.79 842.599 411.791 C 845.589 418.579 849.216 428.709 845.993 435.844 C 841.987 444.712 793.303 460.581 781.772 465.032 C 802.062 497.043 825.407 480.603 845.486 460.085 C 852.385 464.63 860.641 471.003 864.102 478.572 C 863.415 479.865 862.703 481.143 861.965 482.407 C 852.97 497.716 832.674 508.82 816.071 513.168 C 775.917 523.571 746.264 492.769 738.49 455.52 C 730.158 415.592 748.706 388.263 788.08 380.212 z"/>
<path transform="translate(0,0)" fill="rgb(255,255,255)" d="M 785.172 408.237 C 801.826 406.492 805.415 412.51 811.509 426.712 C 805.21 429.623 797.201 432.489 790.626 435.038 L 773.319 442.07 C 769.834 425.937 769.049 416.616 785.172 408.237 z"/>
<path transform="translate(0,0)" fill="rgb(55,19,35)" d="M 643.892 407.971 C 645.11 407.921 646.622 408.168 647.88 408.306 C 654.411 413.43 663.729 430.553 668.271 438.209 C 676.679 432.593 685.226 427.188 693.904 422 C 701.327 429.602 704.302 435.189 707.381 445.086 C 701.135 450.439 690.844 455.953 683.503 460.223 C 693.315 476.198 702.944 492.318 713.083 508.088 C 724.904 526.473 731.709 519.789 744.79 507.851 C 752.639 512.958 757.372 518.202 762.156 526.074 C 759.226 532.809 757.291 535.18 752.438 540.3 C 714.215 571.808 691.592 551.912 673.079 515.781 C 667.78 505.44 657.738 490.744 651.132 480.968 C 645.767 484.63 641.027 487.205 635.353 490.342 C 629.92 484.95 622.018 475.534 623.853 467.491 C 625.207 461.553 630.922 459.283 635.733 456.465 C 621.239 431.206 608.953 421.159 643.892 407.971 z"/>
<path transform="translate(0,0)" fill="rgb(55,19,35)" d="M 554.559 437.131 C 567.327 437.98 581.485 459.746 589.544 469.657 L 632.206 522.143 C 655.451 550.641 656.482 553.681 687.49 573.028 C 680.899 585.558 675.297 590.7 662.028 595.217 C 655.596 595.531 648.169 594.638 643.064 590.3 C 627.135 576.762 613.759 559.192 600.307 543.159 L 529.545 457.633 C 536.008 446.547 542.44 440.947 554.559 437.131 z"/>
<path transform="translate(0,0)" fill="rgb(55,19,35)" d="M 1493.99 570.129 C 1504.92 569.015 1515.97 571.593 1518.84 584.214 C 1521.02 593.758 1517.4 599.46 1512.45 607.174 C 1530.74 604.1 1546.29 609.399 1555.42 626.336 C 1562.82 640.078 1535.84 648.825 1527.13 651.612 C 1518.32 634.542 1513.41 629.932 1493.9 628.242 C 1485.18 632.701 1472.7 642.675 1464.52 648.794 C 1451.19 658.853 1437.68 668.668 1424 678.235 C 1420.2 675.191 1398.19 652.248 1402.64 647.638 C 1427.76 621.664 1476.58 601.824 1493.99 570.129 z"/>
<path transform="translate(0,0)" fill="rgb(55,19,35)" d="M 667.989 1433.95 C 688.967 1432.88 692.695 1451.06 689.204 1467.95 C 709.457 1456.29 726.19 1459.28 740.746 1477.94 C 734.137 1489.07 726.999 1496.48 716.872 1504.41 C 688.959 1471.55 674.412 1499.88 659.506 1523.49 C 650.609 1536.41 642.61 1549.9 633.579 1562.91 C 619.696 1556.36 612.645 1552.33 601.917 1541.53 C 613.202 1524.75 624.362 1507.89 635.396 1490.95 C 641.171 1482.1 648.308 1471.56 653.45 1462.48 C 659.79 1451.29 655.153 1442.27 667.989 1433.95 z"/>
<path transform="translate(0,0)" fill="rgb(55,19,35)" d="M 1383.3 1393.67 L 1385.94 1394.57 C 1392.53 1401.67 1397.82 1417.11 1400.22 1426.44 C 1385.61 1432.52 1369.95 1445.99 1380.28 1463.47 C 1393.09 1485.13 1410.75 1506.12 1425.56 1526.88 C 1417.42 1537.2 1407.22 1543.46 1395.93 1549.79 C 1392.99 1546.21 1389.69 1541.67 1386.82 1537.95 C 1371.53 1516.57 1356.05 1494.45 1340.09 1473.56 C 1335.39 1467.4 1324.7 1463.12 1319.74 1456.18 C 1318.56 1451.48 1318.52 1446.71 1321.55 1442.82 C 1333.08 1428.03 1346.68 1433.52 1358.52 1441.8 C 1353.99 1416.93 1361.57 1405.11 1383.3 1393.67 z"/>
<path transform="translate(0,0)" fill="rgb(55,19,35)" d="M 1603.98 965.654 C 1624.73 963.167 1643.65 977.761 1646.51 998.462 C 1649.36 1019.16 1635.11 1038.34 1614.47 1041.57 C 1600.78 1043.71 1587 1038.3 1578.43 1027.41 C 1569.86 1016.52 1567.83 1001.86 1573.13 989.053 C 1578.43 976.25 1590.22 967.303 1603.98 965.654 z"/>
<path transform="translate(0,0)" fill="rgb(55,19,35)" d="M 390.165 965.656 C 411.124 963.781 429.667 979.175 431.68 1000.12 C 433.693 1021.07 418.421 1039.71 397.488 1041.86 C 376.361 1044.03 357.505 1028.59 355.474 1007.44 C 353.442 986.303 369.011 967.549 390.165 965.656 z"/>
</svg>